<svg width="40" height="40" viewBox="0 0 40 40" fill="none" xmlns="http://www.w3.org/2000/svg">
<g id="apple 1" clip-path="url(#clip0_1_255)">
<g id="Group">
<g id="Group_2">
<path id="Vector" d="M27.4983 0C25.3658 0.147499 22.8733 1.51249 21.4208 3.28998C20.0958 4.90247 19.0058 7.29746 19.4308 9.62494C21.7608 9.69744 24.1683 8.29995 25.5633 6.49246C26.8683 4.80997 27.8558 2.42999 27.4983 0Z" fill="white"/>
</g>
</g>
<g id="Group_3">
<g id="Group_4">
<path id="Vector_2" d="M35.9257 13.4198C33.8783 10.8523 31.0008 9.3623 28.2833 9.3623C24.6958 9.3623 23.1783 11.0798 20.6858 11.0798C18.1158 11.0798 16.1634 9.3673 13.0609 9.3673C10.0134 9.3673 6.76841 11.2298 4.71092 14.4148C1.81844 18.8997 2.31344 27.3322 7.00091 34.5147C8.6784 37.0846 10.9184 39.9746 13.8484 39.9996C16.4559 40.0246 17.1909 38.3271 20.7233 38.3096C24.2558 38.2896 24.9258 40.0221 27.5283 39.9946C30.4608 39.9721 32.8233 36.7696 34.5007 34.1997C35.7032 32.3572 36.1507 31.4297 37.0832 29.3497C30.3008 26.7672 29.2133 17.1223 35.9257 13.4198Z" fill="white"/>
</g>
</g>
</g>
<defs>
<clipPath id="clip0_1_255">
<rect width="40" height="40" fill="white"/>
</clipPath>
</defs>
</svg>
