<svg width="58" height="39" viewBox="0 0 58 39" fill="none" xmlns="http://www.w3.org/2000/svg">
<g id="Group 49">
<path id="Vector" d="M55.9526 6.05702C55.294 3.68863 53.3644 1.82175 50.9175 1.18399C46.4468 0 28.5643 0 28.5643 0C28.5643 0 10.6821 0 6.21148 1.13886C3.81162 1.77619 1.83498 3.68905 1.17639 6.05702C0 10.383 0 19.3546 0 19.3546C0 19.3546 0 28.3714 1.17639 32.6522C1.83542 35.0202 3.76455 36.8875 6.21192 37.5253C10.7292 38.7093 28.5647 38.7093 28.5647 38.7093C28.5647 38.7093 46.4468 38.7093 50.9175 37.5704C53.3649 36.9331 55.294 35.0658 55.953 32.6978C57.1294 28.3714 57.1294 19.4002 57.1294 19.4002C57.1294 19.4002 57.1765 10.383 55.9526 6.05702Z" fill="white"/>
<path id="Vector_2" d="M22.8706 27.6431L37.7409 19.3547L22.8706 11.0664V27.6431Z" fill="#FF0000"/>
</g>
</svg>
