<svg width="40" height="40" viewBox="0 0 40 40" fill="none" xmlns="http://www.w3.org/2000/svg">
<g id="linkedin 1">
<g id="_x31_0.Linkedin">
<path id="Vector" d="M35.992 35.9998V35.9986H36V24.2626C36 18.5214 34.764 14.0986 28.052 14.0986C24.8252 14.0986 22.66 15.8694 21.776 17.5478H21.6828V14.6346H15.3188V35.9986H21.9456V25.4198C21.9456 22.6346 22.4736 19.941 25.9228 19.941C29.3216 19.941 29.372 23.1198 29.372 25.5982V35.9998H35.992Z" fill="white"/>
<path id="Vector_2" d="M4.52795 14.6357H11.1628V35.9997H4.52795V14.6357Z" fill="white"/>
<path id="Vector_3" d="M7.8428 4C5.7212 4 4 5.7212 4 7.8428C4 9.9644 5.7212 11.7216 7.8428 11.7216C9.9644 11.7216 11.6856 9.9644 11.6856 7.8428C11.684 5.7212 9.9628 4 7.8428 4Z" fill="white"/>
</g>
</g>
</svg>
